<svg width="16" height="17" viewBox="0 0 16 17" fill="none" xmlns="http://www.w3.org/2000/svg">
<path d="M15.5107 1.42865C15.6656 1.58344 15.7886 1.76725 15.8724 1.96958C15.9563 2.17191 15.9995 2.38879 15.9995 2.60782C15.9995 2.82685 15.9563 3.04372 15.8724 3.24605C15.7886 3.44838 15.6656 3.6322 15.5107 3.78699L10.5407 8.75532L15.0007 13.2137C15.3134 13.5264 15.4891 13.9505 15.4891 14.3928C15.4891 14.8351 15.3134 15.2593 15.0007 15.572C14.6879 15.8847 14.2638 16.0604 13.8215 16.0604C13.3792 16.0604 12.9551 15.8847 12.6423 15.572L8.18399 11.112L3.72566 15.572C3.41292 15.8847 2.98876 16.0604 2.54649 16.0604C2.10422 16.0604 1.68006 15.8847 1.36732 15.572C1.05459 15.2593 0.878896 14.8351 0.878896 14.3928C0.878896 13.9505 1.05459 13.5264 1.36732 13.2137L5.82732 8.75532L0.857323 3.78699C0.702473 3.63203 0.57966 3.44808 0.495898 3.24566C0.412135 3.04324 0.369063 2.8263 0.369141 2.60723C0.369218 2.38816 0.412443 2.17125 0.496349 1.96889C0.580254 1.76652 0.703197 1.58267 0.858156 1.42782C1.01312 1.27297 1.19706 1.15016 1.39948 1.06639C1.6019 0.982631 1.81884 0.939559 2.03791 0.939636C2.25698 0.939714 2.47389 0.98294 2.67625 1.06685C2.87862 1.15075 3.06247 1.27369 3.21732 1.42865L8.18399 6.40032L13.1523 1.43032C13.3071 1.27536 13.4909 1.15243 13.6933 1.06855C13.8956 0.984679 14.1125 0.941509 14.3315 0.941509C14.5505 0.941509 14.7674 0.984679 14.9697 1.06855C15.1721 1.15243 15.3559 1.27369 15.5107 1.42865Z" fill="#555555"/>
</svg>
