<svg width="48" height="49" viewBox="0 0 48 49" fill="none" xmlns="http://www.w3.org/2000/svg">
<path d="M8 11.7C8 11.2756 8.16858 10.8687 8.46862 10.5686C8.76869 10.2686 9.17565 10.1 9.6 10.1H38.4C38.8243 10.1 39.2314 10.2686 39.5314 10.5686C39.8314 10.8687 40 11.2756 40 11.7C40 12.1243 39.8314 12.5313 39.5314 12.8314C39.2314 13.1314 38.8243 13.3 38.4 13.3H9.6C9.17565 13.3 8.76869 13.1314 8.46862 12.8314C8.16858 12.5313 8 12.1243 8 11.7ZM9.6 26.1H38.4C38.8243 26.1 39.2314 25.9313 39.5314 25.6313C39.8314 25.3313 40 24.9243 40 24.5C40 24.0757 39.8314 23.6686 39.5314 23.3686C39.2314 23.0686 38.8243 22.9 38.4 22.9H9.6C9.17565 22.9 8.76869 23.0686 8.46862 23.3686C8.16858 23.6686 8 24.0757 8 24.5C8 24.9243 8.16858 25.3313 8.46862 25.6313C8.76869 25.9313 9.17565 26.1 9.6 26.1ZM9.6 38.9H38.4C38.8243 38.9 39.2314 38.7313 39.5314 38.4313C39.8314 38.1313 40 37.7243 40 37.3C40 36.8757 39.8314 36.4686 39.5314 36.1686C39.2314 35.8686 38.8243 35.7 38.4 35.7H9.6C9.17565 35.7 8.76869 35.8686 8.46862 36.1686C8.16858 36.4686 8 36.8757 8 37.3C8 37.7243 8.16858 38.1313 8.46862 38.4313C8.76869 38.7313 9.17565 38.9 9.6 38.9Z" fill="black"/>
</svg>
