<svg width="100" height="100" viewBox="0 0 100 100" fill="none" xmlns="http://www.w3.org/2000/svg">
<path d="M29.5352 0.241421C29.3923 0.34487 29.2852 7.2759 29.2852 15.5862V30.6897H32.678H36.0709V24.1725C36.0709 17.2414 36.2494 16.2759 37.7851 14.7242C38.5351 13.9311 38.9994 13.7931 40.4994 13.7931C42.428 13.7931 43.4994 14.3794 44.2494 15.7587C44.4994 16.2414 44.6423 19.069 44.6423 23.5862V30.6897H47.8565H51.0708V22.7242C51.0708 13.7931 50.8565 12.6207 48.9994 10.8276C47.2494 9.13797 45.6065 8.55177 42.678 8.51728C39.9637 8.4828 38.5708 9.00004 36.9637 10.5173L36.0709 11.4138V5.6897V4.19617e-05H32.928C31.178 4.19617e-05 29.6423 0.103491 29.5352 0.241421Z" fill="black"/>
<path d="M9.51729 6.28443C7.01197 6.97247 4.42712 8.69259 2.67738 10.9478C-2.41278 17.3314 0.0129997 26.4289 7.76754 30.0984C9.87519 31.0923 10.5484 31.4656 13.9285 31.4656C17.2292 31.4656 17.9479 31.0923 19.8567 30.1749C25.4638 27.5374 28.4463 22.033 27.3726 16.3375C26.5773 12.0946 24.1515 9.03661 20.0157 7.08715C17.4309 5.86395 12.4203 5.48171 9.51729 6.28443ZM17.4309 12.668C22.0041 15.7642 20.5725 24.1354 15.2437 25.2821C12.1817 25.9319 9.55705 24.7087 8.28451 22.0712C6.97221 19.3191 7.48917 15.3819 9.43775 13.2796C11.1875 11.4065 15.1642 11.1007 17.4309 12.668Z" fill="#ED51A4"/>
<path d="M2.5 51.0345V65.8621H5.53571H8.57141L8.64284 55.5862L8.74999 45.3449L9.49998 47.4138C9.92855 48.5518 11.6071 53.138 13.1785 57.5862C14.7857 62.0345 16.25 65.8276 16.3928 65.9655C16.5357 66.1035 17.6785 66.2069 18.9285 66.138L21.1785 66.0345L22.5357 62.2414C23.2857 60.138 24.9999 55.5173 26.3214 51.9311L28.7499 45.4138L28.8571 55.6552L28.9285 65.8621H31.9642H34.9999V51.0345V36.2069H30.5714H26.1428L25.4285 38C24.8214 39.5173 22 47.3793 19.3928 54.9311C19.0714 55.8276 18.75 56.4828 18.6428 56.3793C18.4285 56.2069 17.2143 52.8621 14.7857 45.8621C13.8928 43.3104 12.75 40.069 12.25 38.6897L11.3214 36.2069H6.92856H2.5V51.0345Z" fill="black"/>
<path d="M37.8555 43.8323C37.8555 44.1771 37.9626 44.453 42.6412 56.6944L46.3554 66.4875L45.6769 68.1427L43.3913 74.5823L48.7484 76.134L51.6769 68.4185C51.8912 67.7633 52.6054 65.9013 53.2126 64.2806C53.8197 62.6599 55.0697 59.4185 55.9626 57.0392C56.8554 54.6599 57.8554 51.9358 58.2126 51.0047C58.6054 50.0392 59.3554 48.0047 59.9626 46.4185L61.034 43.5564L57.7483 43.6599L54.4626 43.7633L51.8912 51.1771C50.4983 55.2461 49.2483 58.3496 49.1412 58.0737C49.0697 57.7978 47.9269 54.453 46.6769 50.6599L44.3555 43.7633L41.1055 43.6599C39.3198 43.6254 37.8555 43.6944 37.8555 43.8323Z" fill="black"/>
<path d="M2.5 85.6552V99.6552H5.53571H8.57141V95.0345V90.4483L12.6071 90.2758C17.25 90.0689 19.3214 89.3793 21.5357 87.3103C23.4642 85.5172 24.0357 84.1034 24.0357 81.0345C24.0357 77.8965 23.4285 76.4138 21.3571 74.5172C18.9642 72.2758 17.6428 71.9655 9.57141 71.7931L2.5 71.6552V85.6552ZM16.5 78.2414C17.5357 79.1379 17.6785 79.4483 17.6785 81.0345C17.6785 82.5862 17.5357 82.931 16.5357 83.7931C15.3214 84.8276 12.9285 85.3448 10.1786 85.1034L8.74999 85L8.64284 81.1034L8.5357 77.2414H11.9643C15.2143 77.2414 15.3928 77.2758 16.5 78.2414Z" fill="black"/>
<path d="M80.3566 76.8966V79.3103H78.5709H76.7852V81.5517V83.7931H78.5709H80.3566V89.5517C80.3923 94.8966 80.428 95.4828 81.178 96.8621C82.3209 99.0345 84.3209 99.9655 87.7494 100C91.3923 100 91.428 99.9655 91.428 97.3448V95.1379L89.8208 95.3793C88.6066 95.5517 87.9994 95.4483 87.3208 95.0345C86.428 94.4828 86.428 94.4483 86.428 89.1379V83.7931H88.928H91.428V81.5517V79.3103H88.928H86.428V76.8966V74.4828H83.3923H80.3566V76.8966Z" fill="black"/>
<path d="M37.428 79.2069C36.8208 79.3103 35.7851 80.0689 34.6423 81.2414L32.8566 83.1724V81.2414V79.3103H29.928H27.0352L27.2494 85.7586C27.3923 89.3448 27.4994 93.8965 27.4994 95.931V99.6552H30.3566H33.2137V94.0345C33.2137 89.2414 33.3209 88.2758 33.8923 87.2414C34.928 85.3103 36.4994 84.4827 39.1423 84.4827H41.428V81.931C41.428 79.5862 41.3565 79.3793 40.6423 79.1724C39.7851 78.9655 39.0351 78.9655 37.428 79.2069Z" fill="black"/>
<path d="M63.8214 79.4483C63.0357 79.7241 62.0357 80.2758 61.5714 80.7241L60.7143 81.4827V80.4138V79.3103H57.8571H55V89.4827V99.6552H57.8571H60.7143V92.931V86.2414L61.9643 85C63.0714 83.9655 63.4643 83.7931 64.9285 83.7931C66.8214 83.7931 67.9643 84.5172 68.6071 86.1034C68.7857 86.5517 68.9285 89.7931 68.9285 93.3103V99.6552H71.7857H74.6428V92.1034C74.6428 84.1379 74.5 83.3103 72.8571 81.2758C72.4285 80.7586 71.6071 80.1034 71 79.7931C69.4643 79.0345 65.5 78.8276 63.8214 79.4483Z" fill="black"/>
<path d="M45 89.1724V99.3448H47.8571H50.7143V89.1724V79H47.8571H45V89.1724Z" fill="black"/>
<path d="M94.2504 94.4483C92.8933 95.7931 92.8576 97.4483 94.1433 98.931C94.8933 99.8276 95.3219 100 96.6076 100C98.7147 100 100 98.7586 100 96.7586C99.9647 95.2414 99.5361 94.4828 98.3219 93.8621C96.929 93.1379 95.3933 93.3793 94.2504 94.4483Z" fill="black"/>
</svg>
